<svg version="1" xmlns="http://www.w3.org/2000/svg" width="341.333" height="341.333" viewBox="0 0 256.000000 256.000000"><path d="M113 .8c-5.3.5-25.4 5.3-26.5 6.3-.5.5-1.6.9-2.5.9-.8 0-6 2.2-11.5 4.9C34.4 31.3 8.4 66.4 1.4 109c-1 6.1-1.2 28.2-.3 35 .9 6.5 3.5 19.2 4.6 22 .3.8.7 1.9.8 2.5.2.5 1.2 3.4 2.4 6.2 17.2 43.4 55.8 73.7 101.6 80.1 6.4.9 29.4.8 36.5-.1 6.2-.8 17.9-3.8 25.7-6.7 35.8-13.2 65.1-43.5 76.7-79.6 3.4-10.5 3.7-11.5 5.4-23.4 1-6.8.8-31.9-.3-38-6.5-35-26.1-65.4-55-85.1-12.9-8.8-31-16.3-47.3-19.6C145.1.9 121.3-.1 113 .8z"/></svg>